<svg id="ppcohpujbc-Layer_1" data-name="Layer 1" xmlns="http://www.w3.org/2000/svg" viewBox="0 0 310.02 82.31" class="h-full w-auto"><rect width="310.02" height="82.31" style="fill: none;"></rect><path d="M87.56,76.06,86.22,73.4C86,73,85.85,73,85.85,73v0a1.27,1.27,0,0,0,.4-.43l2-3.25h-.88l-1.87,3.08a.68.68,0,0,1-.65.28h-.92V69.94c0-.47-.2-.67-.67-.67h-.81V70h.47a.22.22,0,0,1,.24.24V77h.77V73.3h.85c.33,0,.58,0,.7.29l1.41,2.83c.25.52.44.58,1.07.58h.41v-.68h-.22C87.83,76.31,87.67,76.29,87.56,76.06Zm6.42,0V73.47c0-1.36-.48-2.15-1.86-2.15a2.35,2.35,0,0,0-2.2,1.4h0s0-.18,0-.4v-.25c0-.42-.21-.62-.67-.62h-.77v.65h.46a.22.22,0,0,1,.24.24V77h.75V74.33a2.62,2.62,0,0,1,.09-.75A2.1,2.1,0,0,1,92,72c1.07,0,1.2.77,1.2,1.64v2.65c0,.47.2.67.67.67h.78v-.65h-.46C94.07,76.35,94,76.27,94,76.1Zm4.07-4.77a2.86,2.86,0,0,0-2.92,2.87,2.93,2.93,0,1,0,5.85,0A2.86,2.86,0,0,0,98.05,71.33Zm0,5.13A2.19,2.19,0,0,1,95.9,74.2a2.16,2.16,0,1,1,4.31,0A2.19,2.19,0,0,1,98.06,76.46Zm10.84-4.38-1.14,3.51a5.24,5.24,0,0,0-.15.59h0s-.09-.33-.18-.59l-1.35-4.1h-.75L104,75.59c-.09.26-.18.59-.18.59h0s-.08-.33-.17-.59l-1.13-3.51c-.17-.52-.34-.62-.87-.62h-.39v.65h.14a.34.34,0,0,1,.39.25L103.31,77h.84l1.34-3.94c.1-.28.18-.59.18-.59h0s.08.32.17.59L107.21,77H108l1.58-4.63a.35.35,0,0,1,.38-.25h.15v-.65h-.39C109.24,71.46,109.06,71.56,108.9,72.08Zm2.84,4V69.93c0-.47-.2-.67-.67-.67h-.78v.65h.46a.22.22,0,0,1,.24.24v6.17c0,.47.2.67.67.67h.78v-.65H112Q111.74,76.35,111.74,76.1Zm3.94-4.77a2.7,2.7,0,0,0-2.73,2.9,2.79,2.79,0,0,0,2.89,2.89,3.17,3.17,0,0,0,2.06-.79l-.36-.56a2.47,2.47,0,0,1-1.66.68,2.11,2.11,0,0,1-2.15-2.2H118s0-.24,0-.37a2.31,2.31,0,0,0-2.32-2.55Zm-1.91,2.33a1.91,1.91,0,0,1,1.9-1.71,1.57,1.57,0,0,1,1.56,1.71Zm10.06,2.44V69.93c0-.47-.2-.67-.67-.67h-.78v.65h.46a.22.22,0,0,1,.24.24v1.79c0,.23,0,.42,0,.42h0a2,2,0,0,0-1.8-1c-1.45,0-2.49,1.14-2.49,2.89s.92,2.9,2.41,2.9a2,2,0,0,0,1.9-1.1h0a2.73,2.73,0,0,0,0,.35c0,.41.2.62.66.62h.77v-.65h-.46Q123.83,76.35,123.83,76.1Zm-2.52.36c-1,0-1.75-.87-1.75-2.23s.8-2.22,1.78-2.22c1.19,0,1.76,1.1,1.76,2.22C123.1,75.8,122.23,76.46,121.31,76.46Zm8-4.39v.21h0a1.81,1.81,0,0,0-1.84-1c-1.49,0-2.4,1.13-2.4,2.79A2.54,2.54,0,0,0,127.49,77a1.81,1.81,0,0,0,1.74-1h0s0,.19,0,.4v.48c0,1.23-.86,1.74-1.94,1.74a3.48,3.48,0,0,1-1.5-.38l-.29.63a4,4,0,0,0,1.8.44A2.37,2.37,0,0,0,130,76.87V72.36a.21.21,0,0,1,.24-.24h.45v-.65h-.77C129.47,71.46,129.29,71.67,129.29,72.07Zm-1.68,4.22c-1.09,0-1.8-.86-1.8-2.18s.63-2.1,1.71-2.1,1.75.5,1.75,2.11S128.49,76.29,127.61,76.29Zm6.28-5a2.7,2.7,0,0,0-2.73,2.9,2.79,2.79,0,0,0,2.89,2.89,3.17,3.17,0,0,0,2.06-.79l-.36-.56a2.47,2.47,0,0,1-1.66.68,2.11,2.11,0,0,1-2.15-2.2h4.25s0-.24,0-.37A2.31,2.31,0,0,0,133.89,71.33ZM132,73.66a1.91,1.91,0,0,1,1.9-1.71,1.57,1.57,0,0,1,1.56,1.71Zm20.24,2.74a3.16,3.16,0,0,1-3.07-3.33,3,3,0,0,1,3-3.21c.89,0,2.15.4,2.15,1.12v.43h.73v-.64c0-1.17-1.79-1.64-2.89-1.64a3.8,3.8,0,0,0-3.82,3.94,3.88,3.88,0,0,0,3.86,4.06,4.12,4.12,0,0,0,3-1.25l-.44-.56a3.67,3.67,0,0,1-2.54,1.08Zm6.48-5.07a2.86,2.86,0,0,0-2.92,2.87,2.93,2.93,0,1,0,2.92-2.87Zm0,5.13a2.19,2.19,0,0,1-2.16-2.26,2.16,2.16,0,1,1,4.31,0A2.2,2.2,0,0,1,158.71,76.46Zm8.89-.36V73.47c0-1.36-.48-2.15-1.86-2.15a2.35,2.35,0,0,0-2.2,1.4h0s0-.18,0-.4v-.25c0-.42-.21-.62-.67-.62h-.77v.65h.46a.22.22,0,0,1,.24.24V77h.75V74.33a2.62,2.62,0,0,1,.09-.75,2.1,2.1,0,0,1,2-1.56c1.07,0,1.2.77,1.2,1.64v2.65c0,.47.2.67.67.67h.78v-.65h-.46c-.16,0-.24-.06-.24-.23Zm6.46,0V73.47c0-1.36-.48-2.15-1.86-2.15a2.35,2.35,0,0,0-2.2,1.4h0s0-.18,0-.4v-.25c0-.42-.21-.62-.67-.62h-.77v.65H169a.22.22,0,0,1,.24.24V77H170V74.33a2.62,2.62,0,0,1,.09-.75,2.1,2.1,0,0,1,2-1.56c1.07,0,1.2.77,1.2,1.64v2.65c0,.47.2.67.67.67h.78v-.65h-.46c-.15,0-.24-.06-.24-.23ZM178,71.33a2.7,2.7,0,0,0-2.73,2.9,2.79,2.79,0,0,0,2.89,2.89,3.17,3.17,0,0,0,2.06-.79l-.36-.56a2.47,2.47,0,0,1-1.66.68,2.11,2.11,0,0,1-2.15-2.2h4.25s0-.24,0-.37A2.31,2.31,0,0,0,178,71.33ZM176,73.66a1.91,1.91,0,0,1,1.9-1.71,1.57,1.57,0,0,1,1.56,1.71ZM184,76.44a2.22,2.22,0,0,1,0-4.44c.46,0,1.27.22,1.27.68V73h.7v-.5c0-.91-1.34-1.18-2-1.18a2.83,2.83,0,0,0-2.92,2.9,2.79,2.79,0,0,0,2.9,2.89,2.93,2.93,0,0,0,2.17-.9l-.35-.56a2.37,2.37,0,0,1-1.78.79Zm4-1.54V72.08h1.39v-.63H188V69.92h-.74v1.53h-.74v.63h.73V75A1.8,1.8,0,0,0,189.13,77a2.33,2.33,0,0,0,.32,0v-.67a1.41,1.41,0,0,1-.25,0c-.43,0-1.25-.16-1.25-1.46Zm3.45,1.2v-4c0-.47-.2-.67-.67-.67H190v.65h.46a.22.22,0,0,1,.24.24v4c0,.47.2.67.67.67h.78v-.65h-.46C191.49,76.35,191.4,76.27,191.4,76.1Zm-.77-6.84h.73v.95h-.73Zm4.91,2.07a2.86,2.86,0,0,0-2.92,2.87,2.93,2.93,0,1,0,2.92-2.87Zm0,5.13a2.19,2.19,0,0,1-2.16-2.26,2.16,2.16,0,1,1,4.31,0A2.2,2.2,0,0,1,195.55,76.46Zm8.88-.36V73.47c0-1.36-.48-2.15-1.86-2.15a2.35,2.35,0,0,0-2.2,1.4h0s0-.18,0-.4v-.25c0-.42-.21-.62-.67-.62h-.77v.65h.46a.22.22,0,0,1,.24.24V77h.75V74.33a2.62,2.62,0,0,1,.09-.75,2.1,2.1,0,0,1,2-1.56c1.07,0,1.2.77,1.2,1.64v2.65c0,.47.2.67.67.67h.78v-.65h-.46c-.15,0-.24-.06-.24-.23Zm2-3.32c0-.54.46-.8,1.23-.8.36,0,1,.15,1,.56v.26h.7v-.47c0-.78-1.12-1-1.68-1-1.11,0-2,.5-2,1.5,0,1.78,3.1,1.56,3.1,2.77,0,.58-.55.88-1.17.88a2.26,2.26,0,0,1-1.71-.84l-.43.52a2.65,2.65,0,0,0,2.12,1c1.1,0,1.94-.63,1.94-1.55,0-1.84-3.09-1.56-3.09-2.8ZM225,76.4a3.16,3.16,0,0,1-3.07-3.33,3,3,0,0,1,3-3.21c.89,0,2.15.4,2.15,1.12v.43h.73v-.64c0-1.17-1.79-1.64-2.89-1.64a3.8,3.8,0,0,0-3.82,3.94A3.88,3.88,0,0,0,225,77.13a4.09,4.09,0,0,0,3-1.25l-.44-.56A3.67,3.67,0,0,1,225,76.4Zm4.82-3.52h0s0-.19,0-.42v-.37c0-.44-.21-.63-.67-.63h-.77v.65h.46a.22.22,0,0,1,.24.24V77h.75V74.66a3.66,3.66,0,0,1,.15-1.08,1.78,1.78,0,0,1,1.61-1.43,2,2,0,0,1,.27,0v-.74a1.61,1.61,0,0,0-.3,0A1.89,1.89,0,0,0,229.83,72.88Zm5-1.55a2.71,2.71,0,0,0-2.73,2.9A2.79,2.79,0,0,0,235,77.12a3.17,3.17,0,0,0,2.06-.79l-.36-.56a2.47,2.47,0,0,1-1.66.68,2.11,2.11,0,0,1-2.15-2.2h4.25s0-.24,0-.37A2.31,2.31,0,0,0,234.84,71.33Zm-1.91,2.33a1.91,1.91,0,0,1,1.9-1.71,1.57,1.57,0,0,1,1.56,1.71Zm10,2.44V69.93c0-.47-.2-.67-.67-.67h-.78v.65H242a.22.22,0,0,1,.24.24v1.79c0,.23,0,.42,0,.42h0a2,2,0,0,0-1.8-1c-1.45,0-2.49,1.14-2.49,2.89s.92,2.9,2.41,2.9a2,2,0,0,0,1.9-1.1h0a2.73,2.73,0,0,0,0,.35c0,.41.2.62.66.62h.77v-.65h-.46C243.07,76.35,243,76.27,243,76.1Zm-2.51.36c-1,0-1.75-.87-1.75-2.23s.8-2.22,1.78-2.22c1.19,0,1.76,1.1,1.76,2.22C242.26,75.8,241.39,76.46,240.47,76.46Zm6.65-5.13a2.7,2.7,0,0,0-2.73,2.9,2.79,2.79,0,0,0,2.89,2.89,3.17,3.17,0,0,0,2.06-.79l-.36-.56a2.47,2.47,0,0,1-1.66.68,2.11,2.11,0,0,1-2.15-2.2h4.25s0-.24,0-.37A2.31,2.31,0,0,0,247.12,71.33Zm-1.91,2.33a1.91,1.91,0,0,1,1.9-1.71,1.57,1.57,0,0,1,1.56,1.71Zm10.3,2.44V73.47c0-1.36-.48-2.15-1.86-2.15a2.35,2.35,0,0,0-2.2,1.4h0s0-.18,0-.4v-.25c0-.42-.21-.62-.67-.62H250v.65h.46a.22.22,0,0,1,.24.24V77h.75V74.33a2.62,2.62,0,0,1,.09-.75,2.1,2.1,0,0,1,2-1.56c1.07,0,1.2.77,1.2,1.64v2.65c0,.47.2.67.67.67h.78v-.65h-.46c-.15,0-.24-.06-.24-.23ZM258,74.9V72.08h1.39v-.63H258V69.92h-.74v1.53h-.74v.63h.73V75A1.8,1.8,0,0,0,259.17,77a2.33,2.33,0,0,0,.32,0v-.67a1.41,1.41,0,0,1-.25,0c-.42,0-1.24-.16-1.24-1.46Zm3.67,1.2v-4c0-.47-.2-.67-.67-.67h-.78v.65h.46a.22.22,0,0,1,.24.24v4c0,.47.2.67.67.67h.78v-.65h-.46C261.76,76.35,261.67,76.27,261.67,76.1Zm-.77-6.84h.73v.95h-.73Zm6.66,6.84V73.45c0-1.19-.42-2.12-2.17-2.12-.48,0-1.8.17-1.8.94v.53h.71v-.35c0-.41.8-.48,1.08-.48,1,0,1.43.41,1.43,1.56v.07h-.31c-1,0-3.39.07-3.39,1.9A1.72,1.72,0,0,0,265,77.14a2,2,0,0,0,1.84-1.2h0s0,.17,0,.41c0,.45.19.66.66.66h.76v-.65h-.46a.23.23,0,0,1-.24-.26Zm-.75-1.67a1.93,1.93,0,0,1-1.69,2.06,1.1,1.1,0,0,1-1.23-1c0-1.24,1.74-1.26,2.61-1.26h.32v.25Zm3.38,1.67V69.93c0-.47-.2-.67-.67-.67h-.78v.65h.46a.22.22,0,0,1,.24.24v6.17c0,.47.2.67.67.67h.78v-.65h-.46Q270.19,76.35,270.19,76.1Zm2.27-3.32c0-.54.46-.8,1.23-.8.36,0,1,.15,1,.56v.26h.7v-.47c0-.78-1.12-1-1.68-1-1.11,0-2,.5-2,1.5,0,1.78,3.1,1.56,3.1,2.77,0,.58-.55.88-1.17.88a2.26,2.26,0,0,1-1.71-.84l-.43.52a2.65,2.65,0,0,0,2.12,1c1.1,0,1.94-.63,1.94-1.55,0-1.84-3.09-1.56-3.09-2.8Z" style="fill: rgb(67, 68, 68);"></path><path d="M79.5,30.68h-.89V23.73h.89V22.62h-3v1.11h.9v7h-.9v1.11h3Zm2.93.28V26c0-.51-.08-1.25-.08-1.25h0s.42.75.75,1.25l4.1,5.81H88.4V24a.26.26,0,0,1,.29-.29h.56V22.62H88c-.6,0-.85.25-.85.83v5c0,.52.09,1.25.09,1.25h0s-.43-.75-.77-1.25l-4.08-5.81H81.13v7.77a.26.26,0,0,1-.29.29h-.56V31.8h1.31c.59,0,.84-.25.84-.84ZM93,30.77a3.32,3.32,0,0,1-2.3-1.11l-.77.92a4.1,4.1,0,0,0,3,1.36,2.67,2.67,0,0,0,2.91-2.61c0-3-4.42-2.6-4.42-4.46,0-.69.62-1.23,1.61-1.23.73,0,1.42.35,1.42.83v.43h1.2v-.75c0-1.25-1.64-1.69-2.61-1.69a2.65,2.65,0,0,0-2.94,2.46c0,2.86,4.43,2.56,4.43,4.49A1.42,1.42,0,0,1,93,30.77ZM97.49,24a.26.26,0,0,1,.29-.29h1.85v8.06h1.3V23.73h1.85a.26.26,0,0,1,.29.29v.58h1.16V23.39c0-.58-.19-.78-.78-.78H97.13c-.58,0-.78.19-.78.78V24.6h1.16V24ZM108,30.68h-.9V23.73h.9V22.62h-3v1.11h.89v7H105v1.11h3ZM109.88,24a.26.26,0,0,1,.29-.29H112v8.06h1.3V23.73h1.85a.26.26,0,0,1,.29.29v.58h1.16V23.39c0-.58-.19-.78-.78-.78h-6.32c-.58,0-.78.19-.78.78V24.6h1.16V24ZM118,24v4.56a3.5,3.5,0,0,0,7,0V24a.26.26,0,0,1,.29-.29h.56V22.62h-1.3c-.58,0-.85.25-.85.83v5.07a2.2,2.2,0,1,1-4.4,0V23.45c0-.58-.25-.83-.83-.83h-1.31v1.12h.56A.25.25,0,0,1,118,24Zm9.32,0a.26.26,0,0,1,.29-.29h1.85v8.06h1.3V23.73h1.85a.26.26,0,0,1,.29.29v.58h1.16V23.39c0-.58-.19-.78-.78-.78H127c-.58,0-.78.19-.78.78V24.6h1.16V24Zm13.17,7.77c.58,0,.83-.25.83-.83V29.8h-1.2v.59a.26.26,0,0,1-.29.29h-2.68a.26.26,0,0,1-.29-.29V27.72h3.21V26.6h-3.21V23.73h2.61a.26.26,0,0,1,.29.29v.58H141V23.44c0-.58-.25-.83-.83-.83h-5.4v1.12h.84V31c0,.58.25.83.83.83Zm10.82-9.33a4.63,4.63,0,0,0-4.71,4.68,4.72,4.72,0,1,0,9.43,0A4.64,4.64,0,0,0,151.34,22.46Zm0,8.27A3.44,3.44,0,0,1,148,27.14a3.36,3.36,0,1,1,6.72,0A3.46,3.46,0,0,1,151.34,30.73Zm11.71-6.12V23.45c0-.58-.25-.83-.83-.83h-5.06v1.12H158V31.8h1.3V27.87h3.13V26.75H159.3v-3h2.27a.26.26,0,0,1,.29.29v.58h1.19ZM83.81,62l-2.87-7.77H79.57L76.7,62a.38.38,0,0,1-.43.29h-.18V63.4h.72a.93.93,0,0,0,1.08-.75l.69-1.89H82l.69,1.89c.21.6.42.75,1.07.75h.73V62.28h-.2C84,62.28,83.88,62.23,83.81,62Zm-4.93-2.33,1-2.8c.17-.48.35-1.29.35-1.29h0s.19.81.36,1.29l1,2.8ZM91,55.05v5.07a2.2,2.2,0,1,1-4.4,0V55.05c0-.58-.25-.83-.83-.83H84.44v1.12H85a.26.26,0,0,1,.29.29v4.56a3.5,3.5,0,0,0,7,0V55.62a.26.26,0,0,1,.29-.29h.56V54.22h-1.3C91.24,54.22,91,54.46,91,55.05Zm4.25,1.43c0-.69.62-1.24,1.61-1.24.73,0,1.42.35,1.42.83v.43h1.2v-.75c0-1.25-1.64-1.69-2.61-1.69a2.65,2.65,0,0,0-2.94,2.46c0,2.86,4.43,2.56,4.43,4.49a1.43,1.43,0,0,1-1.57,1.37,3.32,3.32,0,0,1-2.3-1.1l-.77.92a4.09,4.09,0,0,0,3,1.37A2.67,2.67,0,0,0,99.65,61C99.65,57.92,95.23,58.34,95.23,56.48Zm12-2.26H100.9c-.58,0-.78.19-.78.78v1.21h1.16v-.59a.26.26,0,0,1,.29-.29h1.85v8.06h1.3V55.33h1.85a.26.26,0,0,1,.29.29v.58H108V55C108,54.41,107.8,54.22,107.22,54.22ZM115,62l-1.1-2.2a1.05,1.05,0,0,0-.39-.42v0a2.36,2.36,0,0,0,1.65-2.43,2.55,2.55,0,0,0-2.74-2.69h-4v1.12h.84v8.06h1.3V59.74h1.2c.51,0,.68.07.91.49l1.25,2.47c.3.6.56.69,1.27.69h.64V62.27h-.17C115.36,62.28,115.15,62.25,115,62Zm-2.76-3.36h-1.69V55.33h1.72A1.46,1.46,0,0,1,113.84,57,1.49,1.49,0,0,1,112.26,58.62ZM123.72,62l-2.87-7.77h-1.37L116.61,62a.37.37,0,0,1-.43.29H116V63.4h.71a.93.93,0,0,0,1.08-.75l.69-1.89h3.38l.69,1.89c.21.6.42.75,1.07.75h.73V62.28h-.2C123.92,62.28,123.79,62.23,123.72,62Zm-4.93-2.33,1-2.8c.17-.48.35-1.29.35-1.29h0s.2.81.36,1.29l1,2.8ZM130,62a.26.26,0,0,1-.29.29h-2.53a.26.26,0,0,1-.29-.29V55.05c0-.58-.25-.83-.83-.83h-1.31v1.12h.56a.26.26,0,0,1,.29.29v6.94c0,.58.25.83.83.83h3.93c.58,0,.83-.25.83-.83V61.41H130V62Zm1.86-6.66h.89v7h-.89V63.4h3V62.28H134v-7h.9V54.22h-3ZM143.54,62l-2.87-7.77H139.3L136.43,62a.38.38,0,0,1-.43.29h-.18V63.4h.72a.93.93,0,0,0,1.08-.75l.69-1.89h3.38l.69,1.89c.21.6.42.75,1.07.75h.73V62.28H144c-.23,0-.36-.05-.44-.29Zm-4.93-2.33,1-2.8c.17-.48.35-1.29.35-1.29h0s.19.81.36,1.29l1,2.8ZM26.3,77H42.83l-32.6-48.9Z" style="fill: rgb(36, 151, 108);"></path><path d="M83.47,47.71a4.57,4.57,0,0,1-4.39-4.77,4.23,4.23,0,0,1,4.31-4.54c1.18,0,2.79.46,2.79,1.44v.76h2.26V39.1c0-2.3-3.38-3-5.11-3a6.7,6.7,0,0,0-6.84,6.86A6.79,6.79,0,0,0,83.42,50a7.45,7.45,0,0,0,5.43-2.32l-1.31-1.79A5.66,5.66,0,0,1,83.47,47.71ZM96.85,36.08a6.81,6.81,0,0,0-7,6.88,7,7,0,1,0,13.94,0A6.81,6.81,0,0,0,96.85,36.08Zm0,11.63A4.53,4.53,0,0,1,92.46,43a4.39,4.39,0,1,1,8.78,0A4.54,4.54,0,0,1,96.85,47.71Zm22.72-.44-.87-11h-2.58l-2.77,6.42c-.32.78-.67,1.8-.67,1.8h0s-.34-1-.66-1.8l-2.77-6.42h-2.58l-.87,11c0,.27-.15.42-.42.42h-.59V49.8h2.15c.89,0,1.22-.38,1.29-1.29l.44-6a18.68,18.68,0,0,0,0-2.11h0a22.19,22.19,0,0,0,.74,2.11l2.24,5h2l2.24-5c.34-.76.74-2.09.74-2.09h0a18.31,18.31,0,0,0,0,2.09l.46,6c.08.91.38,1.29,1.27,1.29h2.15V47.69H120A.4.4,0,0,1,119.57,47.27Zm16.53,0-.87-11h-2.58l-2.77,6.42c-.32.78-.67,1.8-.67,1.8h0s-.34-1-.66-1.8l-2.77-6.42h-2.58l-.87,11c0,.27-.15.42-.42.42h-.59V49.8h2.15c.89,0,1.22-.38,1.29-1.29l.44-6a18.68,18.68,0,0,0,0-2.11h0a22.19,22.19,0,0,0,.74,2.11l2.24,5h2l2.24-5c.34-.76.74-2.09.74-2.09h0a18.31,18.31,0,0,0,0,2.09l.46,6c.08.91.38,1.29,1.27,1.29h2.15V47.69h-.59a.4.4,0,0,1-.44-.42Zm11.19-9.67v7.29a2.81,2.81,0,0,1-5.62,0V37.6c0-.89-.38-1.29-1.29-1.29H138v2.11h.82a.38.38,0,0,1,.42.42V45c0,3,2.11,5,5.32,5s5.28-2.05,5.28-5V38.84a.38.38,0,0,1,.42-.42H151V36.31H148.6c-.93,0-1.31.4-1.31,1.29Zm14.38,0v6.17c0,.78.13,1.9.13,1.9h0s-.59-1.12-1.12-1.9l-5.11-7.47h-2.24v11a.38.38,0,0,1-.42.42h-.82v2.11h2.43c.91,0,1.29-.38,1.29-1.29V42.35c0-.78-.13-1.9-.13-1.9h0a20.7,20.7,0,0,0,1.12,1.9l5.13,7.45h2.22v-11a.38.38,0,0,1,.42-.42h.82V36.3H163C162.05,36.31,161.67,36.71,161.67,37.6Zm5.1.82h1.35v9.27h-1.35v2.1h5v-2.1h-1.35V38.42h1.35V36.31h-5Zm17.06-2.11h-9.4c-.91,0-1.22.32-1.22,1.22v2.13h2.18v-.82a.38.38,0,0,1,.42-.42h2.07V49.8h2.49V38.42h2.07a.38.38,0,0,1,.42.42v.82H185V37.52C185,36.63,184.74,36.31,183.83,36.31Zm10.14,1-1.77,3c-.48.8-.82,1.52-.82,1.52h0a16.08,16.08,0,0,0-.82-1.52l-1.79-3a1.66,1.66,0,0,0-1.77-1h-1.27v2.11h.44c.42,0,.53.08.78.46l3.19,5v5.89h2.49V43.9l3.19-5c.25-.38.36-.46.78-.46H197V36.3h-1.27A1.66,1.66,0,0,0,194,37.29Zm17.16-1h-5.49v2.11h1.24V48.51c0,.91.38,1.29,1.29,1.29h3c4.16,0,6.88-2.51,6.88-6.76S215.29,36.31,211.13,36.31ZM211,47.69h-1.22a.38.38,0,0,1-.42-.42V38.42H211c2.66,0,4.43,1.61,4.43,4.62S213.7,47.69,211,47.69Zm7.92-9.27h1.35v9.27h-1.35v2.1H224v-2.1h-1.35V38.42H224V36.31h-5.06Zm16.78,8.83-1.31-2.6a1.56,1.56,0,0,0-.67-.68v0A3.49,3.49,0,0,0,236,40.37a3.88,3.88,0,0,0-4.2-4.07h-6v2.11H227V49.79h2.49v-5h1.25c.7,0,1,.09,1.27.63l1.73,3.4c.44.85.87,1,1.88,1h1.31V47.69h-.25c-.41,0-.73,0-.94-.44Zm-4.28-4.62h-2V38.42h2a1.86,1.86,0,0,1,2,2.09A1.87,1.87,0,0,1,231.42,42.63Zm14,4.64a.38.38,0,0,1-.42.42h-3.12a.38.38,0,0,1-.42-.42V44.06h4.37V42h-4.37V38.42h3a.38.38,0,0,1,.42.42v.82h2.26v-2c0-.89-.4-1.29-1.29-1.29h-8.15v2.11H239V48.52c0,.91.38,1.29,1.29,1.29h6.12c.89,0,1.29-.38,1.29-1.29V46.47h-2.26Zm10.2.44a4.57,4.57,0,0,1-4.39-4.77,4.23,4.23,0,0,1,4.31-4.54c1.18,0,2.79.46,2.79,1.44v.76h2.26V39.1c0-2.3-3.38-3-5.11-3a6.7,6.7,0,0,0-6.84,6.86A6.79,6.79,0,0,0,255.56,50,7.45,7.45,0,0,0,261,47.71l-1.31-1.79a5.66,5.66,0,0,1-4.07,1.79Zm16.83-11.4H263c-.91,0-1.22.32-1.22,1.22v2.13H264v-.82a.38.38,0,0,1,.42-.42h2.07V49.8H269V38.42h2.07a.38.38,0,0,1,.42.42v.82h2.18V37.52c0-.89-.3-1.21-1.21-1.21Zm8.69-.23a6.81,6.81,0,0,0-7,6.88,7,7,0,1,0,13.94,0A6.81,6.81,0,0,0,281.13,36.08Zm0,11.63A4.53,4.53,0,0,1,276.74,43a4.39,4.39,0,0,1,8.78,0A4.54,4.54,0,0,1,281.13,47.71Zm17.78-.46-1.31-2.6a1.56,1.56,0,0,0-.67-.68v0a3.49,3.49,0,0,0,2.24-3.55A3.88,3.88,0,0,0,295,36.3h-6v2.11h1.24V49.79h2.49v-5h1.25c.7,0,1,.09,1.27.63l1.73,3.4c.44.85.87,1,1.88,1h1.31V47.69h-.25c-.41,0-.73,0-.94-.44Zm-4.27-4.62h-2V38.42h2a1.86,1.86,0,0,1,2,2.09A1.88,1.88,0,0,1,294.64,42.63Zm9-2.85c0-.85.84-1.44,2-1.44.89,0,1.79.42,1.79,1V40h2.24V38.74c0-1.92-2.43-2.66-4-2.66-2.6,0-4.5,1.61-4.5,3.8,0,4.2,6.34,4,6.34,6.31,0,1-.91,1.6-1.94,1.6a4.9,4.9,0,0,1-3.27-1.6l-1.41,1.75A6.21,6.21,0,0,0,305.54,50c2.83,0,4.48-1.82,4.48-4,0-4.43-6.34-4-6.34-6.28ZM11.24,77H21.69L0,43.27Z" style="fill: rgb(20, 99, 66);"></path><path d="M46.76,77H71L22.74,4Zm29.9-.6L80.88,74l-4.22-2.4Zm65.87,0L146.74,74l-4.21-2.4Zm73.06-4.79v4.79L219.81,74Z" style="fill: rgb(40, 184, 142);"></path></svg>