<?xml version="1.0" encoding="utf-8"?>
<svg width="800px" height="800px" viewBox="0 0 1024 1024" fill="none" class="icon" version="1.1" xmlns="http://www.w3.org/2000/svg">
  <defs>
    <linearGradient id="rainbowGradient" x1="0%" y1="0%" x2="100%" y2="100%">
      <stop offset="0%" style="stop-color: red; stop-opacity: 1" />
      <stop offset="20%" style="stop-color: orange; stop-opacity: 1" />
      <stop offset="40%" style="stop-color: yellow; stop-opacity: 1" />
      <stop offset="60%" style="stop-color: green; stop-opacity: 1" />
      <stop offset="80%" style="stop-color: blue; stop-opacity: 1" />
      <stop offset="100%" style="stop-color: purple; stop-opacity: 1" />
    </linearGradient>
  </defs>
  <path d="M727.956 903.918a7.994 7.994 0 0 1-5.654-13.652l47.99-47.99a7.996 7.996 0 1 1 11.308 11.31l-47.988 47.988a7.98 7.98 0 0 1-5.656 2.344zM815.938 815.938a7.996 7.996 0 0 1-5.654-13.654l199.958-199.958a7.996 7.996 0 1 1 11.31 11.31l-199.958 199.958a7.98 7.98 0 0 1-5.656 2.344zM807.94 903.918a7.994 7.994 0 0 1-5.656-13.652L1010.24 682.308a7.996 7.996 0 1 1 11.31 11.308L813.594 901.574a7.972 7.972 0 0 1-5.654 2.344z" fill="url(#rainbowGradient)" />
  <path d="M815.938 815.938a7.968 7.968 0 0 1-5.654-2.344l-295.94-295.94a7.996 7.996 0 1 1 11.31-11.308l295.938 295.938a7.996 7.996 0 0 1-5.654 13.654zM775.946 855.93a7.972 7.972 0 0 1-5.654-2.344L482.35 565.644a7.996 7.996 0 1 1 11.31-11.308l287.94 287.94a7.996 7.996 0 0 1-5.654 13.654zM807.94 695.96a7.976 7.976 0 0 1-5.656-2.344L578.33 469.666a7.996 7.996 0 1 1 11.31-11.31l223.954 223.954a7.994 7.994 0 0 1-5.654 13.65z" fill="url(#rainbowGradient)" />
  <path d="M807.94 695.96a7.994 7.994 0 0 1-5.656-13.652l111.976-111.976a7.996 7.996 0 1 1 11.31 11.308l-111.976 111.976a7.964 7.964 0 0 1-5.654 2.344z" fill="url(#rainbowGradient)" />
  <path d="M919.916 583.984a7.976 7.976 0 0 1-5.656-2.344L690.306 357.688a7.996 7.996 0 1 1 11.31-11.308l223.954 223.954a7.994 7.994 0 0 1-5.654 13.65z" fill="url(#rainbowGradient)" />
  <path d="M583.986 472.008a7.996 7.996 0 0 1-5.656-13.652l111.976-111.976a7.996 7.996 0 1 1 11.31 11.308l-111.976 111.978a7.98 7.98 0 0 1-5.654 2.342zM983.902 519.998a7.994 7.994 0 0 1-5.654-13.652l31.992-31.994a7.996 7.996 0 1 1 11.31 11.31l-31.994 31.992a7.966 7.966 0 0 1-5.654 2.344z" fill="url(#rainbowGradient)" />
  <path d="M983.902 519.998a7.972 7.972 0 0 1-5.654-2.344l-63.988-63.986a7.996 7.996 0 1 1 11.31-11.31l63.986 63.988a7.994 7.994 0 0 1-5.654 13.652z" fill="url(#rainbowGradient)" />
  <path d="M919.916 456.012a7.996 7.996 0 0 1-5.656-13.654l95.98-95.978a7.996 7.996 0 1 1 11.31 11.308l-95.98 95.98a7.968 7.968 0 0 1-5.654 2.344zM647.972 839.932a7.976 7.976 0 0 1-5.656-2.344L434.36 629.632a8 8 0 0 1 11.31-11.312l207.958 207.958a7.996 7.996 0 0 1-5.656 13.654z" fill="url(#rainbowGradient)" />
  <path d="M583.986 903.918a7.994 7.994 0 0 1-5.656-13.652l63.986-63.988a7.996 7.996 0 1 1 11.31 11.31l-63.986 63.986a7.972 7.972 0 0 1-5.654 2.344zM56.094 567.988a7.994 7.994 0 0 1-5.656-13.652l95.98-95.98a7.996 7.996 0 1 1 11.31 11.31l-95.98 95.978a7.96 7.96 0 0 1-5.654 2.344z" fill="url(#rainbowGradient)" />
  <path d="M266.55 778.446a7.972 7.972 0 0 1-5.654-2.344L50.44 565.644a7.996 7.996 0 1 1 11.31-11.308l210.456 210.456a7.996 7.996 0 0 1-5.656 13.654z" fill="url(#rainbowGradient)" />
  <path d="M266.55 778.446a7.996 7.996 0 0 1-5.654-13.654l63.986-63.986a7.996 7.996 0 1 1 11.31 11.31l-63.988 63.986a7.966 7.966 0 0 1-5.654 2.344z" fill="url(#rainbowGradient)" />
  <path d="M519.998 903.918a7.972 7.972 0 0 1-5.654-2.344l-189.46-189.458a7.996 7.996 0 1 1 11.31-11.31l189.46 189.46a7.994 7.994 0 0 1-5.656 13.652zM376.028 903.918a7.994 7.994 0 0 1-5.656-13.652l15.998-15.996a7.996 7.996 0 1 1 11.31 11.308l-15.996 15.996a7.976 7.976 0 0 1-5.656 2.344z" fill="url(#rainbowGradient)" />
  <path d="M392.026 887.922a7.976 7.976 0 0 1-5.656-2.344l-63.988-63.986a7.996 7.996 0 1 1 11.31-11.31l63.986 63.988a7.994 7.994 0 0 1-5.652 13.652z" fill="url(#rainbowGradient)" />
  <path d="M248.054 903.918a7.994 7.994 0 0 1-5.654-13.652l79.982-79.984a7.996 7.996 0 1 1 11.31 11.31l-79.984 79.982a7.966 7.966 0 0 1-5.654 2.344zM200.064 839.932a7.972 7.972 0 0 1-5.654-2.344L3.2 646.378a7.996 7.996 0 1 1 11.31-11.31l191.21 191.208a7.996 7.996 0 0 1 0 11.31 7.966 7.966 0 0 1-5.656 2.346z" fill="url(#rainbowGradient)" />
  <path d="M136.078 903.918a7.994 7.994 0 0 1-5.654-13.652l63.986-63.988a7.996 7.996 0 1 1 11.31 11.31l-63.988 63.986a7.972 7.972 0 0 1-5.654 2.344zM120.208 391.9a7.976 7.976 0 0 1-5.656-2.344L3.2 278.22a7.996 7.996 0 1 1 11.31-11.31l111.352 111.336a7.996 7.996 0 0 1-5.654 13.654z" fill="url(#rainbowGradient)" />
  <path d="M8.106 504.002a7.996 7.996 0 0 1-5.656-13.654l112.102-112.086a7.996 7.996 0 1 1 11.31 11.31L13.76 501.658a7.972 7.972 0 0 1-5.654 2.344zM807.94 312.042a7.994 7.994 0 0 1-5.656-13.652l79.984-79.984a7.996 7.996 0 1 1 11.31 11.31l-79.984 79.982a7.972 7.972 0 0 1-5.654 2.344zM583.986 312.042a7.994 7.994 0 0 1-5.656-13.652l79.984-79.984a7.996 7.996 0 1 1 11.308 11.31l-79.982 79.982a7.972 7.972 0 0 1-5.654 2.344zM919.916 903.918a7.994 7.994 0 0 1-5.656-13.652l95.98-95.98a7.996 7.996 0 1 1 11.31 11.31l-95.98 95.978a7.968 7.968 0 0 1-5.654 2.344z" fill="url(#rainbowGradient)" />
  <path d="M887.922 392.026a7.976 7.976 0 0 1-5.654-2.344l-79.984-79.984a7.996 7.996 0 1 1 11.31-11.308l79.984 79.982a7.996 7.996 0 0 1-5.656 13.654z" fill="url(#rainbowGradient)" />
  <path d="M887.922 392.026a7.996 7.996 0 0 1-5.654-13.654L1010.24 250.4a7.996 7.996 0 1 1 11.31 11.31l-127.972 127.972a7.976 7.976 0 0 1-5.656 2.344z" fill="url(#rainbowGradient)" />
  <path d="M1015.896 903.918H8.854a7.994 7.994 0 0 1-7.998-7.998V224.06c0-4.422 3.578-8 7.998-8s8 3.578 8 8v663.862h991.042V224.06c0-4.422 3.578-8 8-8a7.994 7.994 0 0 1 7.998 8v671.86a7.994 7.994 0 0 1-7.998 7.998z" fill="url(#rainbowGradient)" />
  <path d="M344.036 647.972c-47.216 0-199.958-216.83-199.958-327.934 0-110.258 89.702-199.958 199.958-199.958s199.958 89.7 199.958 199.958c0 111.104-152.742 327.934-199.958 327.934z m0-511.894c-101.44 0-183.962 82.522-183.962 183.96 0 107.212 149.508 311.936 183.962 311.936s183.962-204.722 183.962-311.936c0-101.438-82.524-183.96-183.962-183.96zM120.082 232.058H8.854a7.994 7.994 0 0 1-7.998-7.998c0-4.422 3.578-8 7.998-8h111.228a7.994 7.994 0 0 1 7.998 8 7.994 7.994 0 0 1-7.998 7.998zM1015.896 232.058H567.988a7.994 7.994 0 0 1-7.998-7.998c0-4.422 3.578-8 7.998-8h447.908a7.994 7.994 0 0 1 7.998 8 7.994 7.994 0 0 1-7.998 7.998z" fill="url(#rainbowGradient)" />
</svg>
