<svg xmlns="http://www.w3.org/2000/svg" viewBox="0 0 48 48">
	<title>Asset 30ldpi</title>
	<g id="Layer_2" data-name="Layer 2">
		<g id="layer_1-2" data-name="layer 1">
			<path fill="#201602" d="M33,48H15a1,1,0,0,1-1-1V41a1,1,0,0,1,1-1H33a1,1,0,0,1,1,1v6A1,1,0,0,1,33,48ZM16,46H32V42H16Z" />
			<path fill="#201602" d="M45,42H3a3,3,0,0,1-3-3V7A3,3,0,0,1,3,4H20V6H3A1,1,0,0,0,2,7V39a1,1,0,0,0,1,1H45a1,1,0,0,0,1-1V7a1,1,0,0,0-1-1H28V4H45a3,3,0,0,1,3,3V39A3,3,0,0,1,45,42Z" />
			<rect fill="#201602" x="7" y="46" width="34" height="2" />
			<rect fill="#201602" x="3" y="22" width="42" height="2" />
			<rect fill="#201602" x="23" y="11" width="2" height="28" />
			<path fill="#201602" d="M35,35c-2.21,0-4-2.24-4-5a3.71,3.71,0,0,1,4-4,3.71,3.71,0,0,1,4,4C39,32.76,37.21,35,35,35Zm0-7c-1.79,0-2,1.14-2,2,0,1.6.93,3,2,3s2-1.4,2-3C37,29.14,36.79,28,35,28Z" />
			<path fill="#201602" d="M42,39H40V36.69a1,1,0,0,0-.84-1L35,35l-4.16.7a1,1,0,0,0-.84,1V39H28V36.69a3,3,0,0,1,2.51-2.95L34.84,33h.32l4.33.73A3,3,0,0,1,42,36.69Z" />
			<path fill="#201602" d="M13,35c-2.21,0-4-2.24-4-5a3.71,3.71,0,0,1,4-4,3.71,3.71,0,0,1,4,4C17,32.76,15.21,35,13,35Zm0-7c-1.79,0-2,1.14-2,2,0,1.6.93,3,2,3s2-1.4,2-3C15,29.14,14.79,28,13,28Z" />
			<path fill="#201602" d="M20,39H18V36.69a1,1,0,0,0-.84-1L13,35l-4.16.7a1,1,0,0,0-.84,1V39H6V36.69a3,3,0,0,1,2.51-2.95L12.84,33h.32l4.33.73A3,3,0,0,1,20,36.69Z" />
			<path fill="#201602" d="M35,17c-2.21,0-4-2.24-4-5a3.71,3.71,0,0,1,4-4,3.71,3.71,0,0,1,4,4C39,14.76,37.21,17,35,17Zm0-7c-1.79,0-2,1.14-2,2,0,1.6.93,3,2,3s2-1.4,2-3C37,11.14,36.79,10,35,10Z" />
			<path fill="#201602" d="M42,21H40V18.69a1,1,0,0,0-.84-1L35,17l-4.16.7a1,1,0,0,0-.84,1V21H28V18.69a3,3,0,0,1,2.51-3L34.84,15h.32l4.33.73a3,3,0,0,1,2.51,3Z" />
			<path fill="#201602" d="M13,17c-2.21,0-4-2.24-4-5a3.71,3.71,0,0,1,4-4,3.71,3.71,0,0,1,4,4C17,14.76,15.21,17,13,17Zm0-7c-1.79,0-2,1.14-2,2,0,1.6.93,3,2,3s2-1.4,2-3C15,11.14,14.79,10,13,10Z" />
			<path fill="#201602" d="M20,21H18V18.69a1,1,0,0,0-.84-1L13,17l-4.16.7a1,1,0,0,0-.84,1V21H6V18.69a3,3,0,0,1,2.51-3L12.84,15h.32l4.33.73a3,3,0,0,1,2.51,3Z" />
			<path fill="#201602" d="M24,10a5,5,0,1,1,5-5A5,5,0,0,1,24,10Zm0-8a3,3,0,1,0,3,3A3,3,0,0,0,24,2Z" />
			<rect fill="#201602" x="23" y="4" width="2" height="2" />
		</g>
	</g>
</svg>
